<svg xmlns="http://www.w3.org/2000/svg" xmlns:xlink="http://www.w3.org/1999/xlink" width="500" zoomAndPan="magnify" viewBox="0 0 375 374.999991" height="500" preserveAspectRatio="xMidYMid meet" version="1.2"><defs><clipPath id="07861aaa29"><path d="M 37.511719 103.699219 L 337.5 103.699219 L 337.5 158 L 37.511719 158 Z M 37.511719 103.699219 "/></clipPath><clipPath id="de2314dded"><path d="M 159.539062 103.519531 L 215.789062 103.519531 L 215.789062 162 L 159.539062 162 Z M 159.539062 103.519531 "/></clipPath></defs><g id="20a835cfa8"><rect x="0" width="375" y="0" height="374.999991" style="fill:#ffffff;fill-opacity:1;stroke:none;"/><rect x="0" width="375" y="0" height="374.999991" style="fill:#ffffff;fill-opacity:1;stroke:none;"/><g style="fill:#3b5704;fill-opacity:1;"><g transform="translate(38.750653, 199.648844)"><path style="stroke:none" d="M 39.75 0 L 37.65625 -26.1875 L 37.390625 -26.1875 L 28.328125 -0.265625 L 22.328125 -0.265625 L 13.28125 -26.1875 L 13.015625 -26.1875 L 10.921875 0 L 0.859375 0 L 4.828125 -44.1875 L 15.53125 -44.1875 L 25.328125 -18.6875 L 35.140625 -44.1875 L 45.84375 -44.1875 L 49.8125 0 Z M 39.75 0 "/></g></g><g style="fill:#3b5704;fill-opacity:1;"><g transform="translate(84.860074, 199.648844)"><path style="stroke:none" d="M 5.078125 -3.40625 C 2.515625 -6.207031 1.234375 -9.640625 1.234375 -13.703125 C 1.234375 -17.773438 2.515625 -21.222656 5.078125 -24.046875 C 7.648438 -26.867188 10.921875 -28.28125 14.890625 -28.28125 C 18.535156 -28.28125 21.535156 -27.140625 23.890625 -24.859375 L 23.890625 -27.484375 L 33.375 -27.484375 L 33.375 0 L 24 0 L 24 -3.109375 L 23.890625 -3.109375 C 21.535156 -0.503906 18.535156 0.796875 14.890625 0.796875 C 10.921875 0.796875 7.648438 -0.601562 5.078125 -3.40625 Z M 13.140625 -18.359375 C 11.910156 -17.148438 11.296875 -15.597656 11.296875 -13.703125 C 11.296875 -11.816406 11.882812 -10.273438 13.0625 -9.078125 C 14.25 -7.878906 15.804688 -7.28125 17.734375 -7.28125 C 19.585938 -7.28125 21.113281 -7.882812 22.3125 -9.09375 C 23.507812 -10.3125 24.109375 -11.851562 24.109375 -13.71875 C 24.109375 -15.601562 23.488281 -17.148438 22.25 -18.359375 C 21.019531 -19.578125 19.515625 -20.1875 17.734375 -20.1875 C 15.910156 -20.1875 14.378906 -19.578125 13.140625 -18.359375 Z M 13.140625 -18.359375 "/></g></g><g style="fill:#3b5704;fill-opacity:1;"><g transform="translate(116.884601, 199.648844)"><path style="stroke:none" d="M 4.828125 -27.484375 L 4.828125 -37.703125 L 14.296875 -37.703125 L 14.296875 -27.484375 L 20.078125 -27.484375 L 20.078125 -20.25 L 14.296875 -20.25 L 14.296875 -11.515625 C 14.296875 -8.984375 15.007812 -7.71875 16.4375 -7.71875 C 16.800781 -7.71875 17.175781 -7.785156 17.5625 -7.921875 C 17.957031 -8.066406 18.265625 -8.210938 18.484375 -8.359375 L 18.796875 -8.5625 L 21.15625 -0.90625 C 19.125 0.226562 16.800781 0.796875 14.1875 0.796875 C 12.40625 0.796875 10.867188 0.484375 9.578125 -0.140625 C 8.296875 -0.765625 7.320312 -1.601562 6.65625 -2.65625 C 6 -3.707031 5.53125 -4.8125 5.25 -5.96875 C 4.96875 -7.132812 4.828125 -8.375 4.828125 -9.6875 L 4.828125 -20.25 L 0.859375 -20.25 L 0.859375 -27.484375 Z M 4.828125 -27.484375 "/></g></g><g style="fill:#3b5704;fill-opacity:1;"><g transform="translate(133.485353, 199.648844)"><path style="stroke:none" d="M 17.84375 -20.515625 C 16.050781 -20.515625 14.507812 -19.851562 13.21875 -18.53125 C 11.9375 -17.207031 11.296875 -15.617188 11.296875 -13.765625 C 11.296875 -11.867188 11.9375 -10.257812 13.21875 -8.9375 C 14.507812 -7.625 16.050781 -6.96875 17.84375 -6.96875 C 18.695312 -6.96875 19.503906 -7.070312 20.265625 -7.28125 C 21.035156 -7.5 21.597656 -7.710938 21.953125 -7.921875 L 22.4375 -8.25 L 25.65625 -1.65625 C 25.40625 -1.476562 25.054688 -1.253906 24.609375 -0.984375 C 24.160156 -0.722656 23.140625 -0.363281 21.546875 0.09375 C 19.960938 0.5625 18.257812 0.796875 16.4375 0.796875 C 12.40625 0.796875 8.863281 -0.617188 5.8125 -3.453125 C 2.757812 -6.296875 1.234375 -9.695312 1.234375 -13.65625 C 1.234375 -17.65625 2.757812 -21.09375 5.8125 -23.96875 C 8.863281 -26.84375 12.40625 -28.28125 16.4375 -28.28125 C 18.257812 -28.28125 19.9375 -28.066406 21.46875 -27.640625 C 23.007812 -27.210938 24.101562 -26.785156 24.75 -26.359375 L 25.65625 -25.703125 L 22.4375 -19.234375 C 21.257812 -20.085938 19.726562 -20.515625 17.84375 -20.515625 Z M 17.84375 -20.515625 "/></g></g><g style="fill:#3b5704;fill-opacity:1;"><g transform="translate(155.227363, 199.648844)"><path style="stroke:none" d="M 3.21875 0 L 3.21875 -46.0625 L 12.6875 -46.0625 L 12.6875 -24.578125 L 12.796875 -24.578125 C 15.265625 -27.046875 17.890625 -28.28125 20.671875 -28.28125 C 22.023438 -28.28125 23.375 -28.097656 24.71875 -27.734375 C 26.0625 -27.378906 27.347656 -26.828125 28.578125 -26.078125 C 29.804688 -25.328125 30.804688 -24.265625 31.578125 -22.890625 C 32.347656 -21.515625 32.734375 -19.921875 32.734375 -18.109375 L 32.734375 0 L 23.25 0 L 23.25 -15.53125 C 23.25 -16.957031 22.789062 -18.207031 21.875 -19.28125 C 20.96875 -20.351562 19.78125 -20.890625 18.3125 -20.890625 C 16.882812 -20.890625 15.585938 -20.332031 14.421875 -19.21875 C 13.265625 -18.113281 12.6875 -16.882812 12.6875 -15.53125 L 12.6875 0 Z M 3.21875 0 "/></g></g><g style="fill:#3b5704;fill-opacity:1;"><g transform="translate(186.073675, 199.648844)"><path style="stroke:none" d="M 12.15625 -27.484375 L 12.15625 -14.40625 C 12.15625 -11.695312 12.566406 -9.769531 13.390625 -8.625 C 14.210938 -7.476562 15.601562 -6.90625 17.5625 -6.90625 C 19.53125 -6.90625 20.925781 -7.476562 21.75 -8.625 C 22.570312 -9.769531 22.984375 -11.695312 22.984375 -14.40625 L 22.984375 -27.484375 L 32.453125 -27.484375 L 32.453125 -12.109375 C 32.453125 -7.535156 31.265625 -4.238281 28.890625 -2.21875 C 26.515625 -0.207031 22.738281 0.796875 17.5625 0.796875 C 12.382812 0.796875 8.609375 -0.207031 6.234375 -2.21875 C 3.859375 -4.238281 2.671875 -7.535156 2.671875 -12.109375 L 2.671875 -27.484375 Z M 12.15625 -27.484375 "/></g></g><g style="fill:#3b5704;fill-opacity:1;"><g transform="translate(216.652217, 199.648844)"><path style="stroke:none" d="M 4.125 -42.796875 C 5.226562 -43.898438 6.546875 -44.453125 8.078125 -44.453125 C 9.617188 -44.453125 10.941406 -43.898438 12.046875 -42.796875 C 13.160156 -41.691406 13.71875 -40.367188 13.71875 -38.828125 C 13.71875 -37.296875 13.160156 -35.972656 12.046875 -34.859375 C 10.941406 -33.753906 9.617188 -33.203125 8.078125 -33.203125 C 6.546875 -33.203125 5.226562 -33.753906 4.125 -34.859375 C 3.019531 -35.972656 2.46875 -37.296875 2.46875 -38.828125 C 2.46875 -40.367188 3.019531 -41.691406 4.125 -42.796875 Z M 3.21875 -27.484375 L 3.21875 2.40625 C 3.21875 4.90625 2.34375 6.15625 0.59375 6.15625 C 0.226562 6.15625 -0.144531 6.09375 -0.53125 5.96875 C -0.925781 5.84375 -1.25 5.710938 -1.5 5.578125 L -1.828125 5.359375 L -4.765625 13.015625 C -4.691406 13.046875 -4.457031 13.148438 -4.0625 13.328125 C -3.675781 13.515625 -3.382812 13.648438 -3.1875 13.734375 C -2.988281 13.828125 -2.65625 13.941406 -2.1875 14.078125 C -1.726562 14.222656 -1.285156 14.332031 -0.859375 14.40625 C -0.429688 14.476562 0.101562 14.550781 0.75 14.625 C 1.394531 14.695312 2.070312 14.734375 2.78125 14.734375 C 4.570312 14.734375 6.144531 14.421875 7.5 13.796875 C 8.851562 13.171875 9.882812 12.328125 10.59375 11.265625 C 11.3125 10.210938 11.835938 9.109375 12.171875 7.953125 C 12.515625 6.796875 12.6875 5.554688 12.6875 4.234375 L 12.6875 -27.484375 Z M 3.21875 -27.484375 "/></g></g><g style="fill:#3b5704;fill-opacity:1;"><g transform="translate(228.004596, 199.648844)"><path style="stroke:none" d="M 31.015625 -12.421875 L 11.09375 -12.421875 C 11.09375 -10.492188 11.71875 -9.066406 12.96875 -8.140625 C 14.21875 -7.210938 15.570312 -6.75 17.03125 -6.75 C 18.570312 -6.75 19.785156 -6.953125 20.671875 -7.359375 C 21.566406 -7.773438 22.585938 -8.585938 23.734375 -9.796875 L 30.578125 -6.375 C 27.722656 -1.59375 22.976562 0.796875 16.34375 0.796875 C 12.195312 0.796875 8.640625 -0.617188 5.671875 -3.453125 C 2.710938 -6.296875 1.234375 -9.71875 1.234375 -13.71875 C 1.234375 -17.71875 2.710938 -21.144531 5.671875 -24 C 8.640625 -26.851562 12.195312 -28.28125 16.34375 -28.28125 C 20.695312 -28.28125 24.238281 -27.019531 26.96875 -24.5 C 29.695312 -21.988281 31.0625 -18.394531 31.0625 -13.71875 C 31.0625 -13.070312 31.046875 -12.640625 31.015625 -12.421875 Z M 11.359375 -17.671875 L 21.796875 -17.671875 C 21.585938 -19.097656 21.023438 -20.195312 20.109375 -20.96875 C 19.203125 -21.738281 18.035156 -22.125 16.609375 -22.125 C 15.035156 -22.125 13.785156 -21.710938 12.859375 -20.890625 C 11.929688 -20.066406 11.429688 -18.992188 11.359375 -17.671875 Z M 11.359375 -17.671875 "/></g></g><g style="fill:#3b5704;fill-opacity:1;"><g transform="translate(255.74474, 199.648844)"><path style="stroke:none" d="M 3.21875 0 L 3.21875 -27.484375 L 12.6875 -27.484375 L 12.6875 -24.578125 L 12.796875 -24.578125 C 15.265625 -27.046875 17.890625 -28.28125 20.671875 -28.28125 C 22.671875 -28.28125 24.546875 -27.867188 26.296875 -27.046875 C 28.046875 -26.222656 29.367188 -24.957031 30.265625 -23.25 C 33.046875 -26.601562 36.082031 -28.28125 39.375 -28.28125 C 42.300781 -28.28125 44.816406 -27.457031 46.921875 -25.8125 C 49.023438 -24.175781 50.078125 -21.609375 50.078125 -18.109375 L 50.078125 0 L 40.59375 0 L 40.59375 -15.53125 C 40.59375 -17 40.191406 -18.222656 39.390625 -19.203125 C 38.585938 -20.179688 37.382812 -20.671875 35.78125 -20.671875 C 34.382812 -20.671875 33.320312 -20.25 32.59375 -19.40625 C 31.863281 -18.570312 31.460938 -17.566406 31.390625 -16.390625 L 31.390625 0 L 21.90625 0 L 21.90625 -15.53125 C 21.90625 -17 21.503906 -18.222656 20.703125 -19.203125 C 19.898438 -20.179688 18.695312 -20.671875 17.09375 -20.671875 C 15.625 -20.671875 14.519531 -20.210938 13.78125 -19.296875 C 13.050781 -18.390625 12.6875 -17.3125 12.6875 -16.0625 L 12.6875 0 Z M 3.21875 0 "/></g></g><g style="fill:#3b5704;fill-opacity:1;"><g transform="translate(303.942789, 199.648844)"><path style="stroke:none" d="M 31.015625 -12.421875 L 11.09375 -12.421875 C 11.09375 -10.492188 11.71875 -9.066406 12.96875 -8.140625 C 14.21875 -7.210938 15.570312 -6.75 17.03125 -6.75 C 18.570312 -6.75 19.785156 -6.953125 20.671875 -7.359375 C 21.566406 -7.773438 22.585938 -8.585938 23.734375 -9.796875 L 30.578125 -6.375 C 27.722656 -1.59375 22.976562 0.796875 16.34375 0.796875 C 12.195312 0.796875 8.640625 -0.617188 5.671875 -3.453125 C 2.710938 -6.296875 1.234375 -9.71875 1.234375 -13.71875 C 1.234375 -17.71875 2.710938 -21.144531 5.671875 -24 C 8.640625 -26.851562 12.195312 -28.28125 16.34375 -28.28125 C 20.695312 -28.28125 24.238281 -27.019531 26.96875 -24.5 C 29.695312 -21.988281 31.0625 -18.394531 31.0625 -13.71875 C 31.0625 -13.070312 31.046875 -12.640625 31.015625 -12.421875 Z M 11.359375 -17.671875 L 21.796875 -17.671875 C 21.585938 -19.097656 21.023438 -20.195312 20.109375 -20.96875 C 19.203125 -21.738281 18.035156 -22.125 16.609375 -22.125 C 15.035156 -22.125 13.785156 -21.710938 12.859375 -20.890625 C 11.929688 -20.066406 11.429688 -18.992188 11.359375 -17.671875 Z M 11.359375 -17.671875 "/></g></g><g clip-rule="nonzero" clip-path="url(#07861aaa29)"><path style=" stroke:none;fill-rule:evenodd;fill:#a7c800;fill-opacity:1;" d="M 25.039062 96.292969 C 24.988281 97.390625 17.230469 135.226562 45.277344 144.988281 C 70.054688 153.605469 74.453125 123.199219 100.945312 138.664062 C 129.925781 155.578125 130.25 136.8125 149.917969 132.953125 C 177 127.636719 182.203125 161.4375 223.984375 138.640625 C 250.828125 123.988281 254.519531 125.867188 268.96875 141.613281 C 282.292969 156.132812 285.085938 133.859375 296.980469 138.011719 C 310.351562 142.679688 321.515625 170.039062 343.847656 151.609375 C 365.140625 134.039062 356.671875 96.964844 355.597656 92.242188 "/></g><g clip-rule="nonzero" clip-path="url(#de2314dded)"><path style=" stroke:none;fill-rule:nonzero;fill:#3b5704;fill-opacity:1;" d="M 215.417969 133.390625 C 215.390625 133.046875 215.054688 132.433594 214.675781 132.363281 C 213.785156 132.195312 212.140625 132.472656 211.144531 132.480469 C 204.132812 132.542969 197.074219 132.585938 190.113281 132.480469 C 189.609375 132.472656 189.074219 132.683594 188.511719 132.480469 C 188.722656 131.835938 188.9375 131.171875 189.074219 130.503906 C 189.476562 128.503906 189.640625 126.359375 190.148438 124.375 C 190.449219 123.203125 191.035156 122.058594 191.410156 120.914062 L 191.757812 120.675781 C 194.410156 122.222656 194.464844 119.257812 193.234375 117.660156 C 192.921875 117.257812 192.371094 117.050781 192.414062 116.492188 C 192.464844 115.78125 194.003906 113.621094 194.402344 112.796875 C 194.640625 112.304688 195.609375 110.019531 195.609375 109.625 C 195.617188 108.375 195.097656 107.453125 194.347656 106.5 C 193.640625 105.601562 192.277344 104.511719 191.191406 104.105469 C 190.847656 103.976562 189.097656 103.519531 188.804688 103.53125 C 188.164062 103.554688 186.917969 105.085938 186.519531 105.625 C 185.703125 106.722656 184.039062 109.332031 183.523438 110.546875 C 183.382812 110.886719 183.269531 111.191406 183.308594 111.570312 C 182.917969 111.382812 181.761719 110.910156 181.382812 111 C 181.253906 111.027344 180.367188 111.949219 180.257812 112.121094 C 179.683594 113.011719 179.8125 113.707031 179.757812 114.679688 C 179.78125 114.84375 180.859375 115.144531 180.777344 115.472656 C 180.648438 116.003906 179.921875 116.761719 179.625 117.277344 C 177.976562 120.1875 176.539062 122.800781 174.496094 125.5 C 173.382812 126.976562 171.75 128.457031 170.804688 130.074219 C 170.40625 130.75 170.4375 131.71875 170.078125 132.429688 L 159.972656 132.597656 C 159.605469 132.664062 159.542969 133.816406 159.550781 134.191406 C 159.648438 137.800781 162.773438 145.851562 164.824219 148.886719 C 167.644531 153.066406 171.707031 155.621094 176.222656 157.683594 C 176.808594 157.953125 177.410156 158.09375 178.035156 158.238281 C 178.457031 159.035156 178.527344 159.59375 179.226562 160.230469 C 181.714844 162.5 184.539062 161.847656 187.492188 161.878906 C 190.375 161.90625 193.878906 162.457031 195.996094 159.878906 C 196.425781 159.363281 196.472656 158.761719 196.832031 158.230469 C 197.453125 158.085938 198.058594 157.949219 198.640625 157.679688 C 200.378906 156.890625 202.988281 155.453125 204.617188 154.445312 C 209.945312 151.144531 213.65625 142.589844 214.9375 136.65625 C 215.082031 136 215.445312 133.953125 215.398438 133.390625 Z M 189.957031 119.917969 C 189.773438 120.425781 189.296875 121.082031 189.082031 121.648438 C 188.421875 123.386719 188.542969 124.65625 188.269531 126.386719 C 188.183594 126.945312 187.910156 127.59375 187.816406 128.179688 C 187.699219 128.96875 187.761719 132.335938 186.921875 132.542969 L 183.671875 132.597656 C 184.449219 129.914062 185.824219 127.429688 186.835938 124.832031 C 187.535156 123.035156 188.042969 121.179688 188.695312 119.367188 L 188.90625 119.265625 L 189.929688 119.664062 C 190.128906 119.796875 190.003906 119.789062 189.957031 119.917969 Z M 183.566406 121.921875 C 182.207031 125.628906 179.414062 128.503906 178.578125 132.460938 L 175.402344 132.472656 C 176.15625 130.59375 177.035156 128.835938 178.191406 127.167969 C 179.117188 125.832031 180.304688 124.578125 181.242188 123.246094 C 182.542969 121.402344 183.667969 119.410156 184.800781 117.46875 L 185.011719 117.367188 L 185.800781 117.707031 L 183.574219 121.914062 Z M 186.683594 118.1875 L 187.320312 118.601562 C 187.109375 119.011719 186.859375 119.414062 186.683594 119.84375 C 185.71875 122.222656 184.632812 125.292969 183.960938 127.757812 C 183.75 128.523438 183.109375 132.410156 182.53125 132.574219 L 180.007812 132.480469 C 180.742188 130.851562 181.453125 129.207031 182.308594 127.636719 C 182.878906 126.582031 183.683594 125.519531 184.230469 124.480469 C 185.257812 122.515625 185.792969 120.222656 186.675781 118.191406 Z M 178.121094 133.539062 L 176.351562 137.859375 C 176.113281 137.964844 174.488281 137.933594 174.46875 137.738281 L 175.042969 133.539062 Z M 179.417969 133.539062 L 182.136719 133.539062 C 182.308594 133.703125 180.550781 137.484375 180.183594 137.910156 L 177.644531 137.910156 C 178.289062 136.472656 178.996094 135.070312 179.417969 133.539062 Z M 181.546875 137.738281 C 182.382812 136.46875 182.917969 135 183.3125 133.539062 L 186.621094 133.539062 C 186.226562 133.941406 186.113281 135.070312 185.878906 135.394531 C 185.816406 135.476562 185.632812 135.507812 185.550781 135.601562 C 185.1875 136.023438 183.851562 137.597656 183.496094 137.800781 C 183.21875 137.957031 182.164062 137.890625 181.71875 137.90625 C 181.53125 137.910156 181.515625 137.949219 181.542969 137.734375 Z M 182.457031 112.652344 C 183.625 112.480469 186.519531 114.851562 187.589844 115.507812 C 188.699219 116.195312 190.199219 116.925781 191.386719 117.492188 C 191.988281 117.78125 193.566406 118.015625 192.875 119.054688 C 192.785156 119.179688 192.097656 119.542969 191.96875 119.574219 C 191.527344 119.667969 189.992188 118.605469 189.464844 118.351562 C 186.757812 117.042969 183.917969 116.050781 181.1875 114.808594 L 181.101562 114.699219 C 181.238281 114.078125 181.726562 112.757812 182.457031 112.648438 Z M 171.769531 131.972656 C 172.234375 129.292969 176.90625 124.832031 178.59375 122.496094 C 179.535156 121.191406 180.699219 118.511719 181.335938 116.964844 C 181.429688 116.726562 181.546875 115.859375 181.726562 115.820312 C 182.398438 116.179688 183.074219 116.523438 183.757812 116.859375 C 183.871094 116.914062 183.960938 116.820312 183.894531 117.046875 L 179.421875 122.648438 C 177.167969 125.59375 175.335938 128.882812 174.339844 132.480469 L 171.742188 132.480469 C 171.726562 132.3125 171.742188 132.144531 171.769531 131.976562 Z M 171.28125 133.667969 L 174.105469 133.539062 L 173.289062 137.722656 L 172.097656 137.738281 C 171.757812 137.523438 171.09375 133.980469 171.28125 133.667969 Z M 160.398438 133.484375 L 170.089844 133.65625 C 169.96875 135.089844 170.382812 136.445312 170.796875 137.789062 L 162.125 138.359375 C 161.652344 138.25 160.679688 134.128906 160.398438 133.476562 Z M 209.207031 146.496094 C 206.410156 151.25 201.949219 154.4375 196.902344 156.515625 C 195.53125 157.082031 195.328125 156.578125 194.128906 156.519531 C 189.71875 156.320312 185.183594 156.632812 180.773438 156.6875 C 179.644531 156.703125 179.203125 157.007812 178.003906 156.515625 C 170.699219 153.511719 166.414062 149.058594 163.257812 141.855469 C 163.097656 141.496094 162.296875 139.238281 162.417969 139.09375 C 163.1875 139.136719 164.082031 139.3125 164.832031 139.332031 C 169.367188 139.457031 173.898438 138.875 178.425781 138.859375 C 182.613281 138.84375 186.214844 139.296875 190.347656 139.683594 C 195.253906 140.144531 200.210938 139.34375 205.109375 139.097656 C 207.613281 138.972656 210.125 138.707031 212.613281 139.089844 C 211.796875 141.671875 210.582031 144.160156 209.207031 146.492188 Z M 213.152344 137.566406 C 212.894531 137.746094 211.757812 137.726562 211.367188 137.722656 C 203.773438 137.636719 196.179688 138.652344 188.554688 138.222656 C 187.558594 138.164062 186.558594 137.964844 185.5625 138.023438 C 185.457031 137.84375 186.367188 136.828125 186.5 136.636719 C 187.191406 135.65625 187.964844 134.671875 188.351562 133.527344 L 214.382812 133.652344 C 214.195312 134.292969 213.542969 137.28125 213.152344 137.554688 Z M 213.152344 137.566406 "/></g></g></svg>